<svg width="16" height="15" viewBox="0 0 16 15" fill="none" xmlns="http://www.w3.org/2000/svg">
<path d="M10.2501 0.223002L14.0151 2.576C14.087 2.62095 14.1463 2.68345 14.1874 2.75762C14.2285 2.83179 14.2501 2.9152 14.2501 3L14.2501 11.5C14.2501 11.5893 14.2262 11.6769 14.1809 11.7538C14.1356 11.8307 14.0705 11.8941 13.9924 11.9373C13.9144 11.9806 13.8262 12.0022 13.7369 11.9998C13.6477 11.9975 13.5607 11.9713 13.4851 11.924L10.2501 9.902L10.2501 0.223002ZM9.25006 9.809L7.25006 10.809C7.52831 9.20717 6.90473 7.61536 5.25006 6.56998C5.25 4.99998 5.25006 2.191 5.25006 2.191L9.25006 0.191002L9.25006 9.809ZM0.800004 6.99999C1.8983 6.03561 2.93538 5.76394 4.25003 6.17999C4.25001 4.84867 4.25006 2.097 4.25006 2.097L1.01506 0.0760015C0.939376 0.0286976 0.852407 0.00251535 0.763185 0.00017267C0.673963 -0.00217001 0.58574 0.0194122 0.507676 0.0626791C0.429612 0.105946 0.364552 0.16932 0.319252 0.246222C0.273952 0.323123 0.250061 0.410749 0.250061 0.500001L0.250026 6.49999C0.250026 6.49999 0.30476 7.06103 0.800004 6.99999Z" fill="url(#paint0_linear_246_2)"/>
<path d="M11.2501 2.22301L15.0151 4.57601C15.087 4.62096 15.1463 4.68346 15.1874 4.75763C15.2285 4.8318 15.2501 4.91521 15.2501 5.00001L15.2501 13.5C15.2501 13.5893 15.2262 13.6769 15.1809 13.7538C15.1356 13.8307 15.0705 13.8941 14.9924 13.9373C14.9144 13.9806 14.8262 14.0022 14.7369 13.9998C14.6477 13.9975 14.5607 13.9713 14.4851 13.924L11.2501 11.902L11.2501 2.22301ZM10.2501 11.809L6.75 13.3C6.42968 13.3661 6.30374 13.3274 6.25 13L6.25 12.6C7.254 11.4063 7.89462 9.33956 6.25003 7.38498L6.25006 4.19L10.2501 2.19101L10.2501 11.809ZM5.25006 6.56998L5.25006 4.09701L2.01506 2.07601C1.93938 2.02871 1.85241 2.00253 1.76318 2.00018C1.67396 1.99784 1.58574 2.01942 1.50768 2.06269C1.42961 2.10596 1.36455 2.16933 1.31925 2.24623C1.27395 2.32313 1.25006 2.41076 1.25006 2.50001L1.25006 6.63998C1.25006 5.13998 1.25006 6.13998 1.25006 6.63998C2.13986 5.95321 4.19043 5.93657 5.25006 6.56998Z" fill="url(#paint1_linear_246_2)"/>
<path d="M2.14345 10.0294C2.14345 10.3307 2.26314 10.6197 2.47619 10.8327C2.68925 11.0458 2.97821 11.1655 3.27952 11.1655C3.58082 11.1655 3.86979 11.0458 4.08284 10.8327C4.29589 10.6197 4.41559 10.3307 4.41559 10.0294C4.41559 9.72809 4.29589 9.43912 4.08284 9.22607C3.86979 9.01302 3.58082 8.89332 3.27952 8.89332C2.97821 8.89332 2.68925 9.01302 2.47619 9.22607C2.26314 9.43912 2.14345 9.72809 2.14345 10.0294Z" stroke="url(#paint2_linear_246_2)" stroke-width="0.5" stroke-linecap="round" stroke-linejoin="round"/>
<path d="M5.42177 12.1716L3.81499 13.7784C3.67297 13.9203 3.48045 14 3.27971 14C3.07897 14 2.88645 13.9203 2.74443 13.7784L1.13727 12.1716C0.713602 11.7479 0.425083 11.2081 0.308201 10.6205C0.191319 10.0328 0.251323 9.42368 0.480625 8.87012C0.709926 8.31656 1.09823 7.84342 1.59643 7.51054C2.09462 7.17766 2.68034 6.99998 3.27952 6.99998C3.8787 6.99998 4.46442 7.17766 4.96262 7.51054C5.46081 7.84342 5.84911 8.31656 6.07842 8.87012C6.30772 9.42368 6.36772 10.0328 6.25084 10.6205C6.13396 11.2081 5.84544 11.7479 5.42177 12.1716Z" stroke="url(#paint3_linear_246_2)" stroke-width="0.5" stroke-linecap="round" stroke-linejoin="round"/>
<defs>
<linearGradient id="paint0_linear_246_2" x1="7.25004" y1="6.47694e-07" x2="7.25004" y2="12" gradientUnits="userSpaceOnUse">
<stop stop-color="#9B41F6"/>
<stop offset="1" stop-color="#2C1C3C"/>
</linearGradient>
<linearGradient id="paint1_linear_246_2" x1="8.25005" y1="2.00001" x2="8.25005" y2="14" gradientUnits="userSpaceOnUse">
<stop offset="0.543269" stop-color="#667EEA"/>
<stop offset="1" stop-color="#3A4784"/>
</linearGradient>
<linearGradient id="paint2_linear_246_2" x1="3.27952" y1="8.89332" x2="3.27952" y2="11.1655" gradientUnits="userSpaceOnUse">
<stop stop-color="#6E1FBE"/>
<stop offset="0.509615" stop-color="#A16CD7"/>
<stop offset="1" stop-color="#764BA2"/>
</linearGradient>
<linearGradient id="paint3_linear_246_2" x1="3.27952" y1="6.99998" x2="3.27952" y2="14" gradientUnits="userSpaceOnUse">
<stop stop-color="#6E1FBE"/>
<stop offset="0.509615" stop-color="#A16CD7"/>
<stop offset="1" stop-color="#764BA2"/>
</linearGradient>
</defs>
</svg>
